# xmcd
# 
# Track frame offsets:
#     150
#     22197
#     41537
#     59247
#     79404
#     97813
#     116904
#     136467
#     152343
#     175983
# 
# Disc length: 2671
# 
# Revision: 3
# Processed by: cddbd v1.5.2PL0 Copyright (c) Steve Scherf et al.
# Submitted via: fre:ac v1.1beta1pre5
# 
DISCID=880a6d0a
DTITLE=Lucio Battisti - Una giornata uggiosa
DYEAR=1980
DGENRE=Pop
TTITLE0=Il monolocale
TTITLE1=Arrivederci a questa sera
TTITLE2=Gelosa cara
TTITLE3=Orgoglio e dignità
TTITLE4=Una vita viva
TTITLE5=Amore mio di provincia
TTITLE6=Questo amore
TTITLE7=Perchè non sei una mela
TTITLE8=Una giornata uggiosa
TTITLE9=Con il nastro rosa
EXTD=YEAR: 1980 ID3G: 13
EXTT0=
EXTT1=
EXTT2=
EXTT3=
EXTT4=
EXTT5=
EXTT6=
EXTT7=
EXTT8=
EXTT9=
PLAYORDER=
